<?xml version="1.0" encoding="UTF-8" standalone="no"?>
<!DOCTYPE svg PUBLIC "-//W3C//DTD SVG 1.1//EN"
 "http://www.w3.org/Graphics/SVG/1.1/DTD/svg11.dtd">
<!-- Generated by graphviz version 2.49.1 (20211004.0028)
 -->
<!-- Title: snakemake_dag Pages: 1 -->
<svg width="890pt" height="260pt"
 viewBox="0.00 0.00 890.01 260.00" xmlns="http://www.w3.org/2000/svg" xmlns:xlink="http://www.w3.org/1999/xlink">
<g id="graph0" class="graph" transform="scale(1 1) rotate(0) translate(4 256)">
<title>snakemake_dag</title>
<polygon fill="white" stroke="transparent" points="-4,4 -4,-256 886.01,-256 886.01,4 -4,4"/>
<!-- 0 -->
<g id="node1" class="node">
<title>0</title>
<path fill="none" stroke="#d88d56" stroke-width="2" d="M412.51,-36C412.51,-36 346.51,-36 346.51,-36 340.51,-36 334.51,-30 334.51,-24 334.51,-24 334.51,-12 334.51,-12 334.51,-6 340.51,0 346.51,0 346.51,0 412.51,0 412.51,0 418.51,0 424.51,-6 424.51,-12 424.51,-12 424.51,-24 424.51,-24 424.51,-30 418.51,-36 412.51,-36"/>
<text text-anchor="middle" x="379.51" y="-15.5" font-family="sans" font-size="10.00">generate_table</text>
</g>
<!-- 1 -->
<g id="node2" class="node">
<title>1</title>
<path fill="none" stroke="#d86656" stroke-width="2" d="M212.01,-180C212.01,-180 77.01,-180 77.01,-180 71.01,-180 65.01,-174 65.01,-168 65.01,-168 65.01,-156 65.01,-156 65.01,-150 71.01,-144 77.01,-144 77.01,-144 212.01,-144 212.01,-144 218.01,-144 224.01,-150 224.01,-156 224.01,-156 224.01,-168 224.01,-168 224.01,-174 218.01,-180 212.01,-180"/>
<text text-anchor="middle" x="144.51" y="-159.5" font-family="sans" font-size="10.00">calc_experiment_climalogies</text>
</g>
<!-- 1&#45;&gt;0 -->
<g id="edge2" class="edge">
<title>1&#45;&gt;0</title>
<path fill="none" stroke="grey" stroke-width="2" d="M172.86,-143.87C215.29,-118.23 295.36,-69.85 342.4,-41.43"/>
<polygon fill="grey" stroke="grey" stroke-width="2" points="344.31,-44.36 351.06,-36.19 340.69,-38.37 344.31,-44.36"/>
</g>
<!-- 10 -->
<g id="node11" class="node">
<title>10</title>
<path fill="none" stroke="#d8b456" stroke-width="2" d="M481.51,-108C481.51,-108 419.51,-108 419.51,-108 413.51,-108 407.51,-102 407.51,-96 407.51,-96 407.51,-84 407.51,-84 407.51,-78 413.51,-72 419.51,-72 419.51,-72 481.51,-72 481.51,-72 487.51,-72 493.51,-78 493.51,-84 493.51,-84 493.51,-96 493.51,-96 493.51,-102 487.51,-108 481.51,-108"/>
<text text-anchor="middle" x="450.51" y="-87.5" font-family="sans" font-size="10.00">calc_feedback</text>
</g>
<!-- 1&#45;&gt;10 -->
<g id="edge18" class="edge">
<title>1&#45;&gt;10</title>
<path fill="none" stroke="grey" stroke-width="2" d="M218.97,-143.97C274.25,-131.32 348.3,-114.38 397.61,-103.1"/>
<polygon fill="grey" stroke="grey" stroke-width="2" points="398.47,-106.49 407.44,-100.85 396.91,-99.67 398.47,-106.49"/>
</g>
<!-- 2 -->
<g id="node3" class="node">
<title>2</title>
<path fill="none" stroke="#56a2d8" stroke-width="2" d="M345.51,-180C345.51,-180 253.51,-180 253.51,-180 247.51,-180 241.51,-174 241.51,-168 241.51,-168 241.51,-156 241.51,-156 241.51,-150 247.51,-144 253.51,-144 253.51,-144 345.51,-144 345.51,-144 351.51,-144 357.51,-150 357.51,-156 357.51,-156 357.51,-168 357.51,-168 357.51,-174 351.51,-180 345.51,-180"/>
<text text-anchor="middle" x="299.51" y="-159.5" font-family="sans" font-size="10.00">calc_clim_PI_control</text>
</g>
<!-- 2&#45;&gt;0 -->
<g id="edge7" class="edge">
<title>2&#45;&gt;0</title>
<path fill="none" stroke="grey" stroke-width="2" d="M309.16,-143.87C322.97,-119.35 348.51,-74.03 364.72,-45.26"/>
<polygon fill="grey" stroke="grey" stroke-width="2" points="367.97,-46.62 369.83,-36.19 361.87,-43.18 367.97,-46.62"/>
</g>
<!-- 2&#45;&gt;10 -->
<g id="edge22" class="edge">
<title>2&#45;&gt;10</title>
<path fill="none" stroke="grey" stroke-width="2" d="M336.45,-143.88C357,-134.35 382.76,-122.41 404.6,-112.28"/>
<polygon fill="grey" stroke="grey" stroke-width="2" points="406.09,-115.45 413.69,-108.07 403.15,-109.1 406.09,-115.45"/>
</g>
<!-- 3 -->
<g id="node4" class="node">
<title>3</title>
<path fill="none" stroke="#d85656" stroke-width="2" d="M513.01,-180C513.01,-180 388.01,-180 388.01,-180 382.01,-180 376.01,-174 376.01,-168 376.01,-168 376.01,-156 376.01,-156 376.01,-150 382.01,-144 388.01,-144 388.01,-144 513.01,-144 513.01,-144 519.01,-144 525.01,-150 525.01,-156 525.01,-156 525.01,-168 525.01,-168 525.01,-174 519.01,-180 513.01,-180"/>
<text text-anchor="middle" x="450.51" y="-159.5" font-family="sans" font-size="10.00">calc_cloud_radiative_effect</text>
</g>
<!-- 3&#45;&gt;0 -->
<g id="edge3" class="edge">
<title>3&#45;&gt;0</title>
<path fill="none" stroke="grey" stroke-width="2" d="M428.54,-143.79C417.91,-134.33 405.89,-121.74 398.51,-108 388.19,-88.8 383.48,-64.46 381.32,-46.08"/>
<polygon fill="grey" stroke="grey" stroke-width="2" points="384.8,-45.64 380.33,-36.04 377.83,-46.33 384.8,-45.64"/>
</g>
<!-- 3&#45;&gt;10 -->
<g id="edge19" class="edge">
<title>3&#45;&gt;10</title>
<path fill="none" stroke="grey" stroke-width="2" d="M450.51,-143.7C450.51,-135.98 450.51,-126.71 450.51,-118.11"/>
<polygon fill="grey" stroke="grey" stroke-width="2" points="454.01,-118.1 450.51,-108.1 447.01,-118.1 454.01,-118.1"/>
</g>
<!-- 4 -->
<g id="node5" class="node">
<title>4</title>
<path fill="none" stroke="#56c9d8" stroke-width="2" d="M764.51,-252C764.51,-252 678.51,-252 678.51,-252 672.51,-252 666.51,-246 666.51,-240 666.51,-240 666.51,-228 666.51,-228 666.51,-222 672.51,-216 678.51,-216 678.51,-216 764.51,-216 764.51,-216 770.51,-216 776.51,-222 776.51,-228 776.51,-228 776.51,-240 776.51,-240 776.51,-246 770.51,-252 764.51,-252"/>
<text text-anchor="middle" x="721.51" y="-231.5" font-family="sans" font-size="10.00">calculate_ERF_TOA</text>
</g>
<!-- 4&#45;&gt;0 -->
<g id="edge5" class="edge">
<title>4&#45;&gt;0</title>
<path fill="none" stroke="grey" stroke-width="2" d="M727.9,-215.94C733.93,-196.71 740.07,-165.33 725.51,-144 660.47,-48.71 514.94,-25.66 434.9,-20.35"/>
<polygon fill="grey" stroke="grey" stroke-width="2" points="434.72,-16.83 424.53,-19.73 434.3,-23.82 434.72,-16.83"/>
</g>
<!-- 4&#45;&gt;3 -->
<g id="edge12" class="edge">
<title>4&#45;&gt;3</title>
<path fill="none" stroke="grey" stroke-width="2" d="M666.34,-218.75C626.06,-208.34 570.94,-194.11 526.5,-182.63"/>
<polygon fill="grey" stroke="grey" stroke-width="2" points="527.16,-179.18 516.6,-180.07 525.41,-185.96 527.16,-179.18"/>
</g>
<!-- 5 -->
<g id="node6" class="node">
<title>5</title>
<path fill="none" stroke="#d6d856" stroke-width="2" d="M682.01,-180C682.01,-180 555.01,-180 555.01,-180 549.01,-180 543.01,-174 543.01,-168 543.01,-168 543.01,-156 543.01,-156 543.01,-150 549.01,-144 555.01,-144 555.01,-144 682.01,-144 682.01,-144 688.01,-144 694.01,-150 694.01,-156 694.01,-156 694.01,-168 694.01,-168 694.01,-174 688.01,-180 682.01,-180"/>
<text text-anchor="middle" x="618.51" y="-159.5" font-family="sans" font-size="10.00">calc_direct_radiative_effect</text>
</g>
<!-- 4&#45;&gt;5 -->
<g id="edge15" class="edge">
<title>4&#45;&gt;5</title>
<path fill="none" stroke="grey" stroke-width="2" d="M696.31,-215.88C683.1,-206.89 666.72,-195.76 652.4,-186.03"/>
<polygon fill="grey" stroke="grey" stroke-width="2" points="654.04,-182.92 643.8,-180.19 650.11,-188.71 654.04,-182.92"/>
</g>
<!-- 8 -->
<g id="node9" class="node">
<title>8</title>
<path fill="none" stroke="#56b1d8" stroke-width="2" d="M870.01,-180C870.01,-180 801.01,-180 801.01,-180 795.01,-180 789.01,-174 789.01,-168 789.01,-168 789.01,-156 789.01,-156 789.01,-150 795.01,-144 801.01,-144 801.01,-144 870.01,-144 870.01,-144 876.01,-144 882.01,-150 882.01,-156 882.01,-156 882.01,-168 882.01,-168 882.01,-174 876.01,-180 870.01,-180"/>
<text text-anchor="middle" x="835.51" y="-159.5" font-family="sans" font-size="10.00">calc_absorption</text>
</g>
<!-- 4&#45;&gt;8 -->
<g id="edge17" class="edge">
<title>4&#45;&gt;8</title>
<path fill="none" stroke="grey" stroke-width="2" d="M749.4,-215.88C764.3,-206.72 782.84,-195.34 798.89,-185.48"/>
<polygon fill="grey" stroke="grey" stroke-width="2" points="800.83,-188.41 807.52,-180.19 797.16,-182.44 800.83,-188.41"/>
</g>
<!-- 4&#45;&gt;10 -->
<g id="edge21" class="edge">
<title>4&#45;&gt;10</title>
<path fill="none" stroke="grey" stroke-width="2" d="M723.19,-215.7C724.11,-195.64 722.28,-162.9 703.51,-144 676.08,-116.38 569.66,-101.86 503.89,-95.36"/>
<polygon fill="grey" stroke="grey" stroke-width="2" points="503.99,-91.86 493.7,-94.39 503.32,-98.82 503.99,-91.86"/>
</g>
<!-- 5&#45;&gt;0 -->
<g id="edge4" class="edge">
<title>5&#45;&gt;0</title>
<path fill="none" stroke="grey" stroke-width="2" d="M599.45,-143.99C577.3,-124.79 539.07,-93.45 502.51,-72 481.02,-59.39 455.98,-48.05 434.11,-39.13"/>
<polygon fill="grey" stroke="grey" stroke-width="2" points="435.22,-35.8 424.64,-35.33 432.62,-42.3 435.22,-35.8"/>
</g>
<!-- 5&#45;&gt;10 -->
<g id="edge20" class="edge">
<title>5&#45;&gt;10</title>
<path fill="none" stroke="grey" stroke-width="2" d="M577.41,-143.88C554.34,-134.26 525.37,-122.19 500.94,-112.01"/>
<polygon fill="grey" stroke="grey" stroke-width="2" points="502.05,-108.68 491.47,-108.07 499.36,-115.15 502.05,-108.68"/>
</g>
<!-- 6 -->
<g id="node7" class="node">
<title>6</title>
<path fill="none" stroke="#568ad8" stroke-width="2" d="M421.51,-252C421.51,-252 339.51,-252 339.51,-252 333.51,-252 327.51,-246 327.51,-240 327.51,-240 327.51,-228 327.51,-228 327.51,-222 333.51,-216 339.51,-216 339.51,-216 421.51,-216 421.51,-216 427.51,-216 433.51,-222 433.51,-228 433.51,-228 433.51,-240 433.51,-240 433.51,-246 427.51,-252 421.51,-252"/>
<text text-anchor="middle" x="380.51" y="-231.5" font-family="sans" font-size="10.00">calculate_SW_ERF</text>
</g>
<!-- 6&#45;&gt;0 -->
<g id="edge8" class="edge">
<title>6&#45;&gt;0</title>
<path fill="none" stroke="grey" stroke-width="2" d="M327.18,-233.22C237.41,-232.32 62.08,-224.72 23.51,-180 -7.84,-143.65 -7.83,-108.35 23.51,-72 61.67,-27.74 234.11,-19.86 324.24,-18.83"/>
<polygon fill="grey" stroke="grey" stroke-width="2" points="324.31,-22.33 334.28,-18.74 324.25,-15.33 324.31,-22.33"/>
</g>
<!-- 6&#45;&gt;3 -->
<g id="edge11" class="edge">
<title>6&#45;&gt;3</title>
<path fill="none" stroke="grey" stroke-width="2" d="M397.81,-215.7C406.38,-207.14 416.85,-196.66 426.21,-187.3"/>
<polygon fill="grey" stroke="grey" stroke-width="2" points="428.81,-189.65 433.41,-180.1 423.86,-184.7 428.81,-189.65"/>
</g>
<!-- 6&#45;&gt;5 -->
<g id="edge13" class="edge">
<title>6&#45;&gt;5</title>
<path fill="none" stroke="grey" stroke-width="2" d="M433.63,-217.38C468.21,-207.21 513.64,-193.85 550.81,-182.91"/>
<polygon fill="grey" stroke="grey" stroke-width="2" points="551.95,-186.22 560.56,-180.04 549.98,-179.51 551.95,-186.22"/>
</g>
<!-- 7 -->
<g id="node8" class="node">
<title>7</title>
<path fill="none" stroke="#566bd8" stroke-width="2" d="M569.51,-252C569.51,-252 463.51,-252 463.51,-252 457.51,-252 451.51,-246 451.51,-240 451.51,-240 451.51,-228 451.51,-228 451.51,-222 457.51,-216 463.51,-216 463.51,-216 569.51,-216 569.51,-216 575.51,-216 581.51,-222 581.51,-228 581.51,-228 581.51,-240 581.51,-240 581.51,-246 575.51,-252 569.51,-252"/>
<text text-anchor="middle" x="516.51" y="-231.5" font-family="sans" font-size="10.00">calculate_ERF_TOA_LW</text>
</g>
<!-- 7&#45;&gt;0 -->
<g id="edge9" class="edge">
<title>7&#45;&gt;0</title>
<path fill="none" stroke="grey" stroke-width="2" d="M451.23,-217.51C448.29,-216.97 445.37,-216.46 442.51,-216 399.87,-209.15 84.6,-211.92 55.51,-180 -28.18,-88.16 210.95,-42.12 323.95,-25.94"/>
<polygon fill="grey" stroke="grey" stroke-width="2" points="324.74,-29.36 334.15,-24.51 323.76,-22.43 324.74,-29.36"/>
</g>
<!-- 7&#45;&gt;3 -->
<g id="edge10" class="edge">
<title>7&#45;&gt;3</title>
<path fill="none" stroke="grey" stroke-width="2" d="M500.2,-215.7C492.2,-207.22 482.44,-196.86 473.69,-187.58"/>
<polygon fill="grey" stroke="grey" stroke-width="2" points="476.04,-184.98 466.64,-180.1 470.95,-189.78 476.04,-184.98"/>
</g>
<!-- 7&#45;&gt;5 -->
<g id="edge14" class="edge">
<title>7&#45;&gt;5</title>
<path fill="none" stroke="grey" stroke-width="2" d="M541.46,-215.88C554.55,-206.89 570.77,-195.76 584.95,-186.03"/>
<polygon fill="grey" stroke="grey" stroke-width="2" points="587.2,-188.73 593.46,-180.19 583.24,-182.96 587.2,-188.73"/>
</g>
<!-- 8&#45;&gt;0 -->
<g id="edge6" class="edge">
<title>8&#45;&gt;0</title>
<path fill="none" stroke="grey" stroke-width="2" d="M828.98,-144C820.05,-123.26 801.95,-88.89 774.51,-72 718.78,-37.7 529.75,-25.15 434.83,-20.94"/>
<polygon fill="grey" stroke="grey" stroke-width="2" points="434.71,-17.43 424.57,-20.5 434.41,-24.42 434.71,-17.43"/>
</g>
<!-- 9 -->
<g id="node10" class="node">
<title>9</title>
<path fill="none" stroke="#78d856" stroke-width="2" d="M866.51,-252C866.51,-252 806.51,-252 806.51,-252 800.51,-252 794.51,-246 794.51,-240 794.51,-240 794.51,-228 794.51,-228 794.51,-222 800.51,-216 806.51,-216 806.51,-216 866.51,-216 866.51,-216 872.51,-216 878.51,-222 878.51,-228 878.51,-228 878.51,-240 878.51,-240 878.51,-246 872.51,-252 866.51,-252"/>
<text text-anchor="middle" x="836.51" y="-231.5" font-family="sans" font-size="10.00">calc_ERF_surf</text>
</g>
<!-- 9&#45;&gt;8 -->
<g id="edge16" class="edge">
<title>9&#45;&gt;8</title>
<path fill="none" stroke="grey" stroke-width="2" d="M836.26,-215.7C836.15,-207.98 836.02,-198.71 835.9,-190.11"/>
<polygon fill="grey" stroke="grey" stroke-width="2" points="839.4,-190.05 835.75,-180.1 832.4,-190.15 839.4,-190.05"/>
</g>
<!-- 10&#45;&gt;0 -->
<g id="edge1" class="edge">
<title>10&#45;&gt;0</title>
<path fill="none" stroke="grey" stroke-width="2" d="M432.96,-71.7C424.28,-63.14 413.65,-52.66 404.16,-43.3"/>
<polygon fill="grey" stroke="grey" stroke-width="2" points="406.44,-40.63 396.86,-36.1 401.52,-45.62 406.44,-40.63"/>
</g>
</g>
</svg>
